<svg width="1920" height="1080" viewBox="0 0 1920 1080" fill="none" xmlns="http://www.w3.org/2000/svg">
<g opacity="0.2">
<mask id="mask0_193_3931" style="mask-type:luminance" maskUnits="userSpaceOnUse" x="-231" y="-141" width="2381" height="1361">
<path d="M2150 -140.715H-230.75V1219.71H2150V-140.715Z" fill="white"/>
</mask>
<g mask="url(#mask0_193_3931)">
<g opacity="0.7">
<mask id="mask1_193_3931" style="mask-type:luminance" maskUnits="userSpaceOnUse" x="-590" y="-760" width="3452" height="2802">
<path d="M2861.53 -759.773H-589.214V2041.79H2861.53V-759.773Z" fill="white"/>
</mask>
<g mask="url(#mask1_193_3931)">
<path d="M47.4445 112.447L-13.1861 127.525L-44.3412 177.877L-88.7344 141.323L39.9256 -54.127L128.472 -19.6523L100.636 180.637L37.566 171.638L47.4445 112.447ZM54.0434 72.3734L65.8416 -1.05518L15.9294 80.3722L54.0434 72.3734Z" fill="#1A1B18"/>
<path d="M249.856 217.836L272.053 99.5739L210.062 248.791L127.955 222.075L152.671 17.0668L213.102 37.7035L187.706 194.359L270.013 12.9874L326.804 32.1044L301.448 189.12L391.914 8.74805L441.146 43.7426L331.283 244.551L249.856 217.836Z" fill="#1A1B18"/>
<path d="M382.554 -140.715L330.802 -37.4908L347.479 -140.715H266.292L217.059 -32.2516L234.657 -140.715H173.746L157.349 -4.53596L239.416 22.1799L301.406 -127.037L279.21 -8.7753L360.637 17.9406L447.424 -140.715H382.554Z" fill="#1A1B18"/>
<path d="M517.254 185.68L456.624 200.718L425.508 251.07L381.115 214.516L509.775 19.0664L598.322 53.541L570.486 253.83L507.416 244.831L517.294 185.641L517.254 185.68ZM523.853 145.607L535.651 72.1782L485.739 153.605L523.853 145.607Z" fill="#1A1B18"/>
<path d="M719.661 291.058L741.857 172.797L679.827 321.973L597.76 295.298L622.436 90.2894L682.906 110.926L657.511 267.582L739.818 86.21L796.609 105.327L771.253 262.343L861.719 81.9707L910.951 116.965L801.088 317.774L719.661 291.058Z" fill="#1A1B18"/>
<path d="M562.767 -140.715L553.208 -81.0041L515.094 -73.0053L556.568 -140.715H495.098L410.431 -12.0548L454.824 24.4595L485.979 -25.8926L546.61 -40.9303L536.691 18.2605L599.801 27.2591L623.118 -140.715H562.767Z" fill="#1A1B18"/>
<path d="M889.115 -140.715L800.608 35.7378L825.964 -121.278L769.173 -140.395L686.866 40.977L712.262 -115.679L651.831 -136.316L627.155 68.6927L709.222 95.3686L771.213 -53.8083L749.016 64.4533L830.444 91.1692L940.307 -109.64L896.593 -140.715H889.115Z" fill="#1A1B18"/>
<path d="M971.622 262.784L910.992 277.822L879.836 328.174L835.443 291.62L964.103 96.1699L1052.65 130.645L1024.81 330.933L961.744 321.935L971.622 262.744V262.784ZM978.221 222.71L990.019 149.282L940.107 230.709L978.221 222.71Z" fill="#1A1B18"/>
<path d="M1174.07 368.209L1196.23 249.947L1134.24 399.124L1052.17 372.448L1076.85 167.44L1137.32 188.037L1111.92 344.732L1194.23 163.36L1251.02 182.478L1225.66 339.453L1316.09 159.121L1365.36 194.076L1255.5 394.924L1174.07 368.209Z" fill="#1A1B18"/>
<path d="M1000.98 36.1786L940.35 51.2162L909.195 101.568L864.802 65.0141L993.462 -130.436L1082.01 -95.9609L1054.17 104.328L991.102 95.3294L1000.98 36.1385V36.1786ZM1007.62 -3.89521L1019.42 -77.3238L969.505 4.10355L1007.62 -3.89521Z" fill="#1A1B18"/>
<path d="M1203.43 141.605L1225.62 23.3434L1163.59 172.52L1081.52 145.844L1106.2 -59.1638L1166.67 -38.5669L1141.28 118.129L1223.58 -63.2431L1280.37 -44.1261L1255.02 112.85L1345.48 -67.4824L1394.72 -32.5279L1284.85 168.321L1203.43 141.605Z" fill="#1A1B18"/>
<path d="M-2.58772 353.374L-63.2183 368.412L-94.3335 418.764L-138.727 382.209L-10.0665 186.76L78.4797 221.234L50.6441 421.523L-12.4262 412.525L-2.54768 353.334L-2.58772 353.374ZM4.05125 313.3L15.8494 239.872L-34.0628 321.299L4.05125 313.3Z" fill="#1A1B18"/>
<path d="M199.863 458.75L222.06 340.488L160.029 489.705L77.9619 462.989L102.638 257.981L163.109 278.618L137.713 435.273L220.02 253.902L276.811 273.018L251.455 430.034L341.921 249.662L391.153 284.657L281.29 485.465L199.863 458.75Z" fill="#1A1B18"/>
<path d="M467.224 426.595L406.593 441.632L375.438 491.984L331.045 455.43L459.665 259.98L548.211 294.455L520.376 494.744L457.305 485.745L467.184 426.555L467.224 426.595ZM473.863 386.521L485.661 313.092L435.749 394.52L473.863 386.521Z" fill="#1A1B18"/>
<path d="M669.67 531.982L691.826 413.721L629.836 562.937L547.769 536.221L572.445 331.213L632.915 351.85L607.519 508.506L689.826 327.134L746.618 346.251L721.262 503.267L811.688 322.895L860.96 357.889L751.097 558.698L669.67 531.982Z" fill="#1A1B18"/>
<path d="M921.632 503.708L861.001 518.745L829.886 569.098L785.493 532.543L914.113 337.094L1002.66 371.568L974.824 571.857L911.753 562.859L921.632 503.668V503.708ZM928.231 463.634L940.029 390.205L890.117 471.633L928.231 463.634Z" fill="#1A1B18"/>
<path d="M1124.08 609.134L1146.24 490.873L1084.25 640.05L1002.18 613.374L1026.86 408.366L1087.33 428.962L1061.93 585.658L1144.24 404.286L1201.03 423.403L1175.67 580.419L1266.1 400.047L1315.37 435.001L1205.47 635.85L1124.08 609.134Z" fill="#1A1B18"/>
<path d="M-72.577 819.38L-133.208 834.417L-164.323 884.77L-208.716 848.215L-80.0958 652.766L8.45047 687.24L-19.4252 887.529L-82.4954 878.531L-72.617 819.34L-72.577 819.38ZM-65.978 779.266L-54.1798 705.837L-104.092 787.265L-65.978 779.266Z" fill="#1A1B18"/>
<path d="M129.874 924.765L152.03 806.504L90.0399 955.68L7.97266 929.005L32.6488 723.996L93.1194 744.633L67.7233 901.289L150.031 719.917L206.822 739.034L181.466 896.05L271.892 715.678L321.164 750.632L211.261 951.481L129.874 924.765Z" fill="#1A1B18"/>
<path d="M-43.2186 592.733L-103.849 607.771L-134.964 658.123L-179.357 621.569L-50.6974 426.119L37.8488 460.594L10.0132 660.883L-53.0571 651.884L-43.1786 592.693L-43.2186 592.733ZM-36.5796 552.66L-24.7814 479.231L-74.6937 560.658L-36.5796 552.66Z" fill="#1A1B18"/>
<path d="M159.23 698.158L181.427 579.896L119.396 729.073L37.3291 702.397L62.0452 497.389L122.476 517.986L97.0798 674.682L179.387 493.31L236.178 512.427L210.822 669.442L301.288 489.07L350.52 524.025L240.658 724.874L159.23 698.158Z" fill="#1A1B18"/>
<path d="M397.234 892.571L336.604 907.609L305.449 957.961L261.056 921.407L389.716 725.957L478.262 760.432L450.386 960.721L387.316 951.722L397.195 892.531L397.234 892.571ZM403.833 852.497L415.632 779.069L365.719 860.496L403.833 852.497Z" fill="#1A1B18"/>
<path d="M599.68 997.986L621.837 879.724L559.847 1028.9L477.779 1002.23L502.455 797.217L562.926 817.814L537.49 974.51L619.797 793.138L676.628 812.255L651.232 969.27L741.698 788.898L790.971 823.853L681.068 1024.7L599.68 997.986Z" fill="#1A1B18"/>
<path d="M426.588 665.964L365.957 681.001L334.802 731.354L290.409 694.799L419.069 499.35L507.615 533.824L479.74 734.113L416.67 725.115L426.548 665.924L426.588 665.964ZM433.227 625.89L445.025 552.461L395.113 633.889L433.227 625.89Z" fill="#1A1B18"/>
<path d="M629.035 771.381L651.191 653.119L589.201 802.296L507.134 775.62L531.81 570.612L592.281 591.208L566.885 747.904L649.192 566.532L705.983 585.649L680.627 742.665L771.093 562.293L820.325 597.248L710.462 798.096L629.035 771.381Z" fill="#1A1B18"/>
<path d="M851.643 969.716L791.012 984.753L759.897 1035.11L715.504 998.551L844.124 803.102L932.67 837.576L904.835 1037.87L841.764 1028.87L851.643 969.676V969.716ZM858.242 929.642L870.04 856.213L820.128 937.641L858.242 929.642Z" fill="#1A1B18"/>
<path d="M1054.09 1075.1L1076.25 956.838L1014.26 1106.05L932.188 1079.34L956.865 874.33L1017.3 894.967L991.899 1051.62L1074.21 870.251L1131.04 889.368L1105.64 1046.38L1196.11 866.012L1245.34 901.006L1135.48 1101.82L1054.09 1075.1Z" fill="#1A1B18"/>
<path d="M880.999 743.11L820.369 758.148L789.213 808.5L744.82 771.946L873.48 576.496L962.027 610.971L934.191 811.26L871.121 802.261L880.999 743.07V743.11ZM887.598 703.037L899.396 629.608L849.484 711.035L887.598 703.037Z" fill="#1A1B18"/>
<path d="M1083.45 848.494L1105.6 730.232L1043.61 879.449L961.544 852.733L986.22 647.725L1046.69 668.362L1021.25 825.017L1103.6 643.646L1160.39 662.763L1135 819.778L1225.46 639.406L1274.74 674.401L1164.83 875.21L1083.45 848.494Z" fill="#1A1B18"/>
<path d="M80.4011 1162.64L102.558 1044.38L40.5673 1193.56L-41.5 1166.88L-16.8238 961.872L43.6068 982.468L18.2108 1139.16L100.518 957.792L157.349 976.909L131.953 1133.92L222.419 953.553L271.691 988.507L161.788 1189.36L80.4011 1162.64Z" fill="#1A1B18"/>
<path d="M347.76 1130.45L287.129 1145.48L256.014 1195.84L211.621 1159.28L340.281 963.832L428.827 998.307L400.992 1198.6L337.921 1189.6L347.8 1130.41L347.76 1130.45ZM354.359 1090.37L366.157 1016.94L316.245 1098.37L354.359 1090.37Z" fill="#1A1B18"/>
<path d="M601.762 1207.16L627.158 1050.14L570.326 1031.02L488.019 1212.39L513.415 1055.7L452.985 1035.1L430.748 1219.71H529.933L572.366 1117.61L553.209 1219.71H655.073L741.46 1061.74L692.227 1026.78L601.762 1207.16Z" fill="#1A1B18"/>
<path d="M820.569 1094.1L808.771 1167.53L770.657 1175.52L820.569 1094.1ZM677.031 1219.72H753.339L802.132 1207.6L800.092 1219.72H863.122L883.159 1075.5L794.613 1041.03L676.991 1219.72H677.031Z" fill="#1A1B18"/>
<path d="M1816.25 -140.715L1768.26 -45.0496L1783.74 -140.715H1700.31L1654.52 -39.8105L1670.87 -140.715H1610.28L1594.81 -12.0948L1676.87 14.6211L1738.86 -134.596L1716.67 -16.3341L1798.09 10.3818L1880.76 -140.715H1816.25Z" fill="#1A1B18"/>
<path d="M1999.02 -140.715L1990.66 -88.5629L1952.55 -80.5642L1989.42 -140.715H1927.59L1847.89 -19.6136L1892.28 16.9407L1923.4 -33.4515L1984.07 -48.4891L1974.15 10.7016L2037.22 19.7002L2059.53 -140.715H1999.02Z" fill="#1A1B18"/>
<path d="M1435.39 342.774L1374.76 357.812L1343.6 408.164L1299.21 371.61L1427.87 176.16L1516.42 210.635L1488.58 410.924L1425.51 401.925L1435.39 342.734V342.774ZM1442.03 302.7L1453.83 229.272L1403.91 310.699L1442.03 302.7Z" fill="#1A1B18"/>
<path d="M1637.84 448.157L1660 329.895L1598.01 479.112L1515.94 452.396L1540.61 247.388L1601.09 268.025L1575.69 424.681L1658 243.309L1714.79 262.426L1689.43 419.441L1779.86 239.109L1829.13 274.064L1719.27 474.873L1637.84 448.157Z" fill="#1A1B18"/>
<path d="M1464.79 116.164L1404.16 131.242L1373 181.594L1328.61 145.04L1457.27 -50.4102L1545.81 -15.9355L1517.98 184.353L1454.91 175.355L1464.79 116.164ZM1471.39 76.0902L1483.18 2.66162L1433.27 84.089L1471.39 76.0902Z" fill="#1A1B18"/>
<path d="M1667.19 221.554L1689.39 103.293L1627.4 252.51L1545.29 225.794L1570.01 20.7855L1630.44 41.4223L1605.04 198.078L1687.35 16.7061L1744.14 35.8232L1718.79 192.839L1809.25 12.4668L1858.48 47.4614L1748.62 248.27L1667.19 221.554Z" fill="#1A1B18"/>
<path d="M1905.2 416.003L1844.57 431.04L1813.41 481.393L1769.02 444.838L1897.68 249.389L1986.23 283.863L1958.35 484.152L1895.28 475.154L1905.16 415.963L1905.2 416.003ZM1911.8 375.929L1923.6 302.5L1873.68 383.928L1911.8 375.929Z" fill="#1A1B18"/>
<path d="M1934.55 189.397L1873.92 204.435L1842.77 254.787L1798.38 218.233L1927.03 22.7832L2015.58 57.2578L1987.75 257.547L1924.68 248.548L1934.55 189.357V189.397ZM1941.19 149.324L1952.99 75.8949L1903.08 157.322L1941.19 149.324Z" fill="#1A1B18"/>
<path d="M1385.4 583.696L1324.77 598.734L1293.61 649.086L1249.22 612.532L1377.88 417.082L1466.43 451.557L1438.59 651.846L1375.52 642.847L1385.4 583.656V583.696ZM1392 543.622L1403.79 470.194L1353.88 551.621L1392 543.622Z" fill="#1A1B18"/>
<path d="M1587.85 689.081L1610 570.819L1548.01 720.036L1465.95 693.32L1490.62 488.312L1551.09 508.949L1525.7 665.604L1608 484.233L1664.8 503.35L1639.44 660.365L1729.87 480.033L1779.14 514.988L1669.23 715.797L1587.85 689.081Z" fill="#1A1B18"/>
<path d="M1855.21 656.921L1794.58 671.958L1763.42 722.311L1719.03 685.756L1847.69 490.307L1936.23 524.781L1908.4 725.07L1845.33 716.072L1855.21 656.881V656.921ZM1861.81 616.847L1873.6 543.418L1823.69 624.846L1861.81 616.847Z" fill="#1A1B18"/>
<path d="M1315.41 1049.7L1254.78 1064.74L1223.62 1115.09L1179.23 1078.54L1307.89 883.088L1396.43 917.563L1368.6 1117.85L1305.53 1108.85L1315.41 1049.66V1049.7ZM1322.01 1009.59L1333.8 936.16L1283.89 1017.59L1322.01 1009.59Z" fill="#1A1B18"/>
<path d="M1517.86 1155.09L1540.01 1036.83L1478.02 1186L1395.96 1159.33L1420.63 954.319L1481.1 974.955L1455.67 1131.61L1537.98 950.239L1594.81 969.356L1569.41 1126.37L1659.88 946L1709.11 980.955L1599.25 1181.8L1517.86 1155.09Z" fill="#1A1B18"/>
<path d="M1344.77 823.097L1284.14 838.134L1252.98 888.486L1208.59 851.932L1337.21 656.482L1425.75 690.957L1397.92 891.246L1334.85 882.247L1344.73 823.057L1344.77 823.097ZM1351.36 782.983L1363.16 709.554L1313.25 790.982L1351.36 782.983Z" fill="#1A1B18"/>
<path d="M1547.21 928.482L1569.37 810.22L1507.38 959.397L1425.31 932.721L1449.99 727.713L1510.46 748.35L1485.06 905.006L1567.37 723.634L1624.16 742.751L1598.8 899.767L1689.23 719.395L1738.5 754.349L1628.6 955.198L1547.21 928.482Z" fill="#1A1B18"/>
<path d="M1785.22 1122.93L1724.59 1137.97L1693.43 1188.32L1649.04 1151.77L1777.7 956.32L1866.25 990.795L1838.41 1191.08L1775.34 1182.09L1785.22 1122.89V1122.93ZM1791.82 1082.82L1803.61 1009.39L1753.7 1090.82L1791.82 1082.82Z" fill="#1A1B18"/>
<path d="M2039.22 1199.6L2064.62 1042.58L2007.78 1023.46L1925.48 1204.84L1950.87 1048.18L1890.44 1027.54L1867.33 1219.71H1964.27L2009.82 1110.05L1989.27 1219.71H2088.37L2150 1107.09V1033.66L2129.69 1019.22L2039.22 1199.6Z" fill="#1A1B18"/>
<path d="M1814.57 896.329L1753.94 911.367L1722.83 961.719L1678.43 925.164L1807.05 729.715L1895.6 764.189L1867.76 964.478L1804.69 955.48L1814.57 896.289V896.329ZM1821.17 856.215L1832.97 782.787L1783.06 864.214L1821.17 856.215Z" fill="#1A1B18"/>
<path d="M1954.87 978.229L1980.26 821.574L1919.79 800.937L1895.12 1005.94L1977.18 1032.62L2039.17 883.444L2017.02 1001.71L2098.41 1028.42L2150 934.156V810.655L2068.61 972.99L2093.97 815.974L2037.18 796.857L1954.87 978.229Z" fill="#1A1B18"/>
</g>
</g>
</g>
</g>
</svg>
